<svg xmlns="http://www.w3.org/2000/svg" viewBox="0 0 76 14" height="14" width="76" role="img" aria-label="#"><path fill="#AEAEAE" d="M6.98 0c.644 0 1.237.05 1.781.198.545.099.99.297 1.386.544.395.247.692.594.89 1.04.198.444.297.989.297 1.582 0 .693-.149 1.287-.495 1.732-.297.445-.791.84-1.385 1.137.841.248 1.484.692 1.88 1.286.396.594.643 1.336.643 2.177 0 .692-.148 1.286-.396 1.781-.247.495-.643.94-1.088 1.237-.445.297-.99.544-1.583.692-.594.148-1.187.248-1.781.248H.5V0h6.48zm-.395 5.54c.544 0 .99-.148 1.335-.395.347-.247.495-.693.495-1.237 0-.297-.05-.594-.148-.791-.1-.198-.248-.347-.445-.495-.198-.099-.396-.198-.644-.247-.247-.05-.494-.05-.791-.05h-2.87v3.216h3.068zm.148 5.838c.297 0 .594-.05.841-.098a1.742 1.742 0 001.187-.842c.1-.247.198-.545.198-.89 0-.693-.198-1.188-.593-1.534-.396-.297-.94-.445-1.583-.445H3.518v3.81h3.215zm9.548-.05c.396.396.99.594 1.78.594.545 0 1.04-.148 1.436-.396.395-.297.643-.593.741-.89h2.425c-.396 1.187-.99 2.028-1.781 2.572-.792.495-1.732.792-2.87.792a5.816 5.816 0 01-2.127-.396 3.952 3.952 0 01-1.583-1.088 3.924 3.924 0 01-.99-1.633c-.247-.643-.346-1.335-.346-2.127 0-.742.1-1.434.347-2.078a5.333 5.333 0 011.039-1.682c.445-.445.989-.84 1.583-1.088a5.552 5.552 0 012.077-.396c.841 0 1.583.149 2.226.495.644.346 1.138.742 1.534 1.336.396.544.693 1.187.89 1.88.1.692.149 1.385.1 2.176h-7.174c0 .792.297 1.534.693 1.93zm3.117-5.194c-.347-.346-.89-.544-1.534-.544-.445 0-.792.099-1.088.247-.297.149-.495.346-.693.545a1.32 1.32 0 00-.346.692c-.05.248-.1.445-.1.643h4.453c-.099-.742-.346-1.236-.692-1.583zM26.62 0v5.145h.05c.346-.594.791-.99 1.335-1.237.544-.247 1.04-.396 1.583-.396.742 0 1.336.1 1.781.297.445.198.841.495 1.089.841.247.346.445.792.544 1.286a8.51 8.51 0 01.148 1.682v6.085h-2.72v-5.59c0-.84-.15-1.435-.396-1.83-.248-.396-.693-.594-1.336-.594-.742 0-1.286.247-1.583.644-.346.444-.495 1.186-.495 2.176v5.194H23.9V0h2.72zm8.509 5.244c.297-.445.643-.742 1.088-1.04.446-.247.94-.444 1.484-.544a9.105 9.105 0 011.633-.148c.495 0 .99.05 1.534.099.495.05.99.197 1.385.396.445.197.742.494 1.039.84.247.347.395.842.395 1.436v5.194c0 .445.05.89.1 1.287.05.396.197.742.346.94h-2.77c-.1-.1-.15-.298-.199-.446-.05-.148-.05-.346-.05-.494-.444.445-.94.742-1.533.94-.593.197-1.187.246-1.78.246-.495 0-.891-.049-1.336-.197-.396-.099-.742-.297-1.089-.544a2.85 2.85 0 01-.742-.94 3.578 3.578 0 01-.247-1.336c0-.545.099-1.04.297-1.385.198-.347.445-.643.742-.89a3.67 3.67 0 011.088-.495c.396-.099.792-.198 1.237-.248l1.187-.148c.396-.05.742-.1 1.04-.149.296-.099.543-.198.741-.346.198-.148.248-.346.248-.643 0-.297-.05-.544-.149-.693a1.505 1.505 0 00-.396-.395c-.149-.1-.346-.149-.544-.198-.198-.05-.445-.05-.693-.05-.544 0-.94.1-1.236.347-.297.247-.495.643-.544 1.137h-2.721c0-.593.198-1.137.445-1.533zm5.392 3.858c-.148.05-.346.1-.544.149-.198.05-.396.05-.644.099-.197.05-.444.05-.643.099l-.593.148c-.198.05-.396.149-.495.248-.148.098-.247.247-.346.395-.148.198-.148.396-.148.643 0 .248.05.446.148.594.1.148.198.297.346.396.149.099.347.149.545.198.197.049.395.05.642.05.545 0 .94-.1 1.237-.248.297-.198.495-.396.644-.643.148-.248.247-.495.247-.742.05-.248.05-.445.05-.594V8.855c-.149.1-.297.198-.446.247zm7.273-5.342v1.385h.05c.345-.594.79-.99 1.334-1.237.545-.247 1.139-.396 1.683-.396.742 0 1.335.1 1.78.297.495.198.842.495 1.09.841.247.346.444.792.592 1.286a8.5 8.5 0 01.15 1.682v6.085H51.75v-5.59c0-.84-.148-1.435-.396-1.83-.247-.396-.692-.643-1.385-.643-.742 0-1.287.296-1.633.742-.346.445-.494 1.187-.494 2.176v5.195h-2.721V3.76h2.672zm12.762 1.78c-.445 0-.791.1-1.088.298a2.282 2.282 0 00-.742.791c-.198.297-.297.644-.396 1.04-.099.396-.099.741-.099 1.138 0 .345.05.742.099 1.087.1.397.198.693.396.99.198.297.396.545.693.742.297.198.642.297 1.088.297.643 0 1.138-.198 1.533-.544.347-.346.594-.84.644-1.485h2.622c-.198 1.336-.692 2.326-1.534 3.019-.84.692-1.93 1.038-3.265 1.038a5.295 5.295 0 01-2.029-.395 4.403 4.403 0 01-1.583-1.04 4.898 4.898 0 01-1.04-1.582c-.246-.643-.345-1.287-.345-2.029 0-.791.099-1.484.346-2.127.247-.643.545-1.237.99-1.732.445-.494.989-.84 1.583-1.137a5.812 5.812 0 012.127-.396c.594 0 1.138.099 1.682.247a4.316 4.316 0 011.434.692c.445.298.792.693 1.04 1.188.246.445.395 1.038.444 1.682h-2.671c-.097-1.188-.741-1.781-1.929-1.781zM15.044.94h5.54v1.336h-5.54V.94zm54.368 10.389c.396.395 1.039.593 1.78.593.545 0 1.04-.148 1.435-.396.397-.297.644-.593.742-.89h2.375c-.396 1.187-.989 2.028-1.781 2.572-.792.495-1.731.792-2.87.792a5.82 5.82 0 01-2.127-.396 3.953 3.953 0 01-1.583-1.088 3.924 3.924 0 01-.989-1.633c-.247-.643-.346-1.335-.346-2.127 0-.742.099-1.434.346-2.078.238-.62.59-1.19 1.039-1.682.445-.445.99-.84 1.583-1.088a5.75 5.75 0 012.078-.396c.84 0 1.582.149 2.176.495.643.346 1.138.742 1.534 1.336.396.544.692 1.187.89 1.88.198.692.248 1.434.198 2.226h-7.173c0 .742.297 1.484.693 1.88zm3.166-5.195c-.347-.346-.891-.544-1.534-.544-.445 0-.792.099-1.089.247-.296.149-.544.346-.692.545-.148.198-.297.445-.346.692-.049.248-.098.445-.098.643h4.452c-.15-.742-.396-1.236-.693-1.583z"/></svg>