<svg xmlns="http://www.w3.org/2000/svg" viewBox="0 0 66 16" height="16" width="66" role="img" aria-label="#"><path fill="#AEAEAE" d="M20.012 6.438a1.358 1.358 0 100-2.716 1.358 1.358 0 000 2.716zm44.796 4.638c-.206-.145-.366-.169-.498.113-2.28 4.938-6.121 2.474-5.74 2.69.852-.39 3.094-2.187 2.755-4.668-.206-1.517-1.508-2.19-2.89-1.95-2.411.421-3.299 3.023-2.847 5.326.08.396.22.722.361 1.042-2.725 2.216-3.808-1.985-3.93-2.487-.005-.026 2.104-1.785 2.69-5.975.616-4.39-.785-5.19-2.217-5.165-2.651.046-3.367 5.584-2.405 10.2-.08.02-.456.229-1.059.252-.433-1.365-2.286-2.561-2.771-2.1-1.214 1.153.294 3.407 1.355 3.584-.637 3.926-4.624 2.954-3.882-1.965 1.299-2.41 2.286-5.996 2.11-8.16-.063-.766-.63-1.792-1.91-1.741-2.464.097-2.732 5.637-2.443 9.569-.015-.097-.152.477-1.162.763-.238-1.326-2.373-2.657-2.876-2.017-.94 1.198.69 3.333 1.462 3.482-.637 3.926-4.624 2.953-3.882-1.966 1.298-2.41 2.286-5.995 2.11-8.16-.063-.765-.63-1.792-1.91-1.741-2.464.097-2.732 5.637-2.444 9.569-.014-.098-.154.495-1.205.776-.035-1.72-2.178-2.509-2.692-1.96-.918.978.21 2.986 1.252 3.482-.637 3.926-4.623 2.953-3.881-1.966 1.298-2.41 2.285-5.995 2.109-8.16-.062-.765-.629-1.792-1.91-1.741-2.464.097-2.662 5.916-2.373 9.847-.812 3.478-3.534 7.82-3.18-.879.035-.61.073-.842-.231-1.07-.228-.178-.747-.092-1.03-.085-.344.014-.43.215-.507.52-.177.786-.209 1.549-.234 2.589-.017.487-.056.714-.243 1.377-.188.664-1.255 1.876-1.84 1.674-.811-.28-.545-2.569-.393-4.142.127-1.243-.279-1.802-1.318-2.005-.608-.126-.978-.107-1.611-.307-.6-.189-.735-1.322-2.013-.944-.699.207-.25 1.687-.417 2.785-.826 5.399-2.544 5.547-3.341 2.924C11.317 3.494 8.765.027 7.272.027 5.716.027 3.938 1.1 4.69 7.955c-.366-.107-.479-.165-.88-.165C1.544 7.79 0 9.623 0 11.883s1.544 4.094 3.811 4.094c1.338 0 2.278-.61 2.99-1.55.464.664 1.03 1.56 2.063 1.52 3.081-.12 3.977-6.441 4.083-6.794.33.05.641.147.946.198.506.076.543.276.532.786-.135 4.3.659 5.804 2.458 5.804 1.003 0 1.896-.985 2.512-1.69.46.95 1.192 1.661 2.175 1.69 2.382.06 3.294-3.737 3.21-3.237-.065.392.773 3.216 3.225 3.226 3.037.013 3.602-3.327 3.67-3.887.008-.11.011-.1 0 0l-.003.034c.964-.179 1.462-.696 1.462-.696s.774 4.601 3.642 4.55c2.978-.055 3.54-3.074 3.613-3.663.01-.14.016-.123 0 0v.018c1.144-.417 1.446-.835 1.446-.835s.615 4.51 3.642 4.549c2.697.035 3.697-2.727 3.703-3.883.455.005 1.296-.27 1.276-.286 0 0 .988 3.943 3.747 4.146 1.296.095 2.268-.73 2.822-1.105 1.301 1.054 5.636 2.4 8.373-2.24.387-.666-.444-1.453-.59-1.556zm-61.106 3.37c-1.323 0-2.17-1.223-2.17-2.542 0-1.318.778-2.541 2.1-2.541.595 0 .927.065 1.39.469.084.33.322 1.095.438 1.442.155.464.34.86.526 1.29-.266 1.102-1.138 1.882-2.284 1.882zM6.925 9.87c-.055-.087-.044-.033-.105-.116-.243-.66-.71-2.132-.764-3.804-.061-1.89.254-4.108 1.183-4.108.63 0 1.3 4.493-.314 8.028zM25.546 7.9c-.149-1.123-.157-6.126 1.044-5.988.664.268-.42 4.99-1.044 5.988zm8.771 0c-.15-1.123-.157-6.126 1.044-5.988.663.268-.42 4.99-1.044 5.988zm8.701.07c-.15-1.123-.157-6.126 1.044-5.989.663.269-.42 4.99-1.044 5.988zm9.606-6.351c1.098-.114 1.053 4.682-1.151 7.71-.285-1.095-.72-7.334 1.151-7.71zm4.616 10.319c-.353-1.782.558-2.952 1.498-3.08.328-.053.804.16.9.558.155.75-.023 1.861-2.126 3.272a2.893 2.893 0 01-.272-.75z"/></svg>