<svg xmlns="http://www.w3.org/2000/svg" viewBox="0 0 83 16" height="16" width="83" role="img" aria-label="#"><path fill="#AEAEAE" d="M5.237 15.753H2.122V7.988H0V5.46h2.122v-1.8C2.122 1.53 3.06 0 6.167 0c.657 0 1.689.132 1.689.132V2.48H6.772c-1.104 0-1.535.336-1.535 1.264V5.46h2.577l-.23 2.528H5.238v7.765zm7.147-10.495l-.138.003c-2.888 0-4.21 2.172-4.21 5.256 0 3.886 1.714 5.44 4.233 5.44 1.44 0 2.387-.606 2.963-1.738v1.536h2.962V5.46h-2.962v1.583c-.47-1.019-1.443-1.774-2.848-1.786zm.754 2.432c1.213 0 1.941.846 1.941 2.286l.003 1.47c0 .97-.601 2.105-1.944 2.105-2.064 0-2.01-2.23-2.01-2.972 0-2.497 1.1-2.889 2.01-2.889zm6.253 2.918c0-1.25-.06-5.344 5.273-5.344 2.14 0 3.034.681 3.034.681l-.718 2.228s-.893-.491-2.056-.491c-1.49 0-2.44.863-2.44 2.383l.001 1.09c0 1.46.917 2.434 2.442 2.434 1.06 0 2.036-.496 2.036-.496l.717 2.182s-.818.684-3.002.684c-5.077 0-5.287-3.672-5.287-5.35zM45.07 5.261c2.889 0 4.23 2.172 4.23 5.256 0 3.886-1.713 5.44-4.232 5.44-1.44 0-2.506-.606-3.081-1.738v1.536l-2.926-.002V.313l3.107-.27v6.861c.448-1.2 1.921-1.643 2.902-1.643zm-.87 2.43c-1.214 0-2.032.845-2.032 2.285l-.003 1.47c-.002.97.566 2.105 2.034 2.105 2.064 0 2.01-2.23 2.01-2.972 0-2.497-1.1-2.889-2.01-2.889zM33.086 5.268c-3.276 0-5.005 1.786-5.005 4.96v.59c0 4.12 2.428 5.181 5.324 5.181 2.815 0 4.089-.787 4.089-.787l-.581-2.097s-1.5.638-3.135.638c-1.697 0-2.426-.432-2.613-2.063h6.577V10.01c0-3.443-1.941-4.74-4.656-4.74zm.08 2.1c1.133 0 1.868.695 1.828 2.308H31.17c.067-1.698.86-2.309 1.995-2.309zm22.327-2.114c-3.364 0-5.135 1.896-5.135 5.294 0 4.661 3.053 5.412 5.141 5.412 3.057 0 5.09-1.646 5.09-5.37 0-3.876-2.286-5.336-5.096-5.336zm-.042 2.444c1.48 0 2.066 1.107 2.066 2.367v1.083c0 1.527-.82 2.41-2.072 2.41-1.17 0-1.992-.826-1.992-2.41v-1.083c0-1.69.979-2.367 1.998-2.367zm11.326-2.444c-3.364 0-5.135 1.896-5.135 5.294 0 4.661 3.053 5.412 5.141 5.412 3.057 0 5.09-1.646 5.09-5.37 0-3.876-2.286-5.336-5.096-5.336zm-.042 2.444c1.48 0 2.066 1.107 2.066 2.367v1.083c0 1.527-.82 2.41-2.072 2.41-1.17 0-1.992-.826-1.992-2.41v-1.083c0-1.69.979-2.367 1.998-2.367zm6.312 8.054V.313l3.115-.27V10.39l3.091-4.931h3.29l-3.224 5.107 3.348 5.186h-3.3l-3.205-5.035v5.035h-3.115z"/></svg>