<svg xmlns="http://www.w3.org/2000/svg" viewBox="0 0 64 16" height="16" width="64" role="img" aria-label="#"><path fill="#AEAEAE" d="M15.189 5.64c.686 0 1.345-.571 1.46-1.276.134-.686-.33-1.258-1.016-1.258-.686 0-1.345.572-1.461 1.258-.134.705.312 1.276 1.017 1.276zm46.568 2.039h1.535c.21 0 .333-.085.38-.282.074-.304.15-.607.227-.91.046-.177-.057-.31-.253-.31h-1.515c.11-.435.534-1.844.534-2.763 0-1.835-1.558-3.396-3.769-3.396-2.497 0-4.121 1.675-4.121 4.033 0 .688.256 1.49.574 1.987a7.15 7.15 0 00-.41-.011c-1.898 0-3.093 1.029-3.093 2.526 0 1.406 1.108 1.952 2.151 2.316.927.322 1.78.473 1.78 1.197 0 .488-.47.774-1.389.774-1.09 0-1.689-.513-1.841-.708.103-.081.257-.274.257-.596 0-.45-.317-.818-.904-.818-.497 0-.917.405-1.023.939-.798.653-1.67 1.076-2.906 1.076-1.217 0-1.848-.633-1.848-1.98.285.087 1.028.191 1.519.191 2.06 0 3.465-.936 3.465-2.81 0-1.009-.885-2.068-2.636-2.068h-.004c-2.303 0-3.593 1.46-4.156 3.064a32.739 32.739 0 00-.475-.11c.126-.357.217-.77.217-1.227 0-.792-.491-1.727-1.804-1.727-.915 0-1.783.6-2.384 1.498l.255-1.002c.04-.154-.024-.324-.264-.324H38.51c-.192 0-.328.068-.383.286-.036.146-.5 1.963-.95 3.733-.284 1.103-1.753 2.476-3.6 2.476-1.217 0-1.848-.675-1.848-2.022.319.127 1.028.233 1.519.233 2.144 0 3.465-.936 3.465-2.81 0-1.009-.885-2.068-2.636-2.068h-.004c-2.593 0-4.182 2.014-4.451 4.298-.112.95-.913 2.253-1.782 2.253-.423 0-.66-.266-.66-.717 0-.39.275-1.342.576-2.537l.423-1.684h1.41c.21 0 .333-.085.38-.282.068-.282.192-.775.227-.91.046-.177-.057-.31-.253-.31h-1.387s.639-2.548.654-2.613c.061-.259-.155-.408-.382-.36 0 0-1.072.209-1.27.25-.2.04-.355.15-.427.439l-.568 2.283H25.45c-.21 0-.333.086-.38.282-.074.304-.15.607-.227.91-.046.177.057.311.253.311h1.092c-.008.031-.394 1.502-.707 2.819-.147.633-.64 2.115-1.447 2.115-.483 0-.686-.244-.686-.765 0-.822.808-2.879.808-3.812 0-1.246-.668-1.969-2.039-1.969-.863 0-1.759.558-2.138 1.047 0 0 .115-.4.154-.554.042-.163-.045-.323-.258-.323h-1.34c-.285 0-.364.153-.406.32l-.963 3.782c-.317 1.246-1.087 2.288-1.91 2.288-.424 0-.612-.266-.612-.717 0-.39.252-1.352.552-2.546.366-1.454.689-2.652.723-2.791.045-.18-.035-.336-.266-.336h-1.347c-.245 0-.332.128-.383.306 0 0-.38 1.436-.781 3.035-.292 1.16-.614 2.341-.614 2.897 0 .99.445 1.737 1.668 1.737.944 0 1.69-.479 2.261-1.088l-.143.56c-.049.189.01.355.233.355h1.38c.24 0 .332-.096.382-.306.048-.2 1.078-4.25 1.078-4.25.272-1.089.945-1.81 1.893-1.81.449 0 .838.298.793.876-.05.636-.817 2.92-.817 3.923 0 .759.281 1.74 1.71 1.74.974 0 1.69-.466 2.212-1.069.19.64.696 1.07 1.624 1.07 1.541 0 2.47-.915 3.017-1.833.452 1.067 1.513 1.832 3.07 1.832 1.585 0 2.812-.668 3.682-1.577l-.272 1.064c-.049.191.035.342.26.342h1.364c.187 0 .32-.095.369-.291l.5-1.942c.532-2.072 1.389-4.222 2.675-4.222.454 0 .64.253.64.653a.972.972 0 01-.102.438c-.624-.123-1.125.184-1.125.85 0 .434.456.828 1.072.828.47 0 .86-.115 1.17-.324.306.063.61.13.915.199-.047.3-.07.604-.072.908 0 1.663 1.188 3.074 3.317 3.074 1.668 0 2.813-.61 3.802-1.393.474.778 1.674 1.406 3.248 1.406 2.156 0 3.38-1.122 3.38-2.604 0-1.342-1.102-1.836-2.238-2.247-.923-.333-1.693-.515-1.693-1.167 0-.535.42-.78 1.143-.78.468 0 .82.101 1.007.154.186.466.571.982 1.23.982.556 0 .805-.44.805-.846 0-1.154-1.922-1.275-1.922-3.75 0-1.538.871-2.807 2.674-2.807 1.253 0 2.072.794 2.072 2.077 0 1.057-.642 2.939-.642 2.939h-1.09c-.21 0-.333.086-.38.282-.074.304-.15.607-.227.91-.046.177.057.31.253.31h1.065s-1.1 4.058-1.1 4.796c0 .99.558 1.737 1.781 1.737 1.73 0 2.812-1.124 3.282-2.76.037-.126-.035-.229-.163-.229h-.66c-.132 0-.208.075-.242.204-.149.58-.518 1.191-1.246 1.191-.423 0-.66-.265-.66-.717 0-.39.259-1.302.576-2.536.151-.588.42-1.685.42-1.685zm-13.645-.07c.612 0 .903.408.903.893 0 .82-.636 1.32-1.632 1.32-.356 0-.854-.084-1.148-.182.123-.754.67-2.03 1.877-2.03zm-14.395 0c.67 0 .903.408.903.893 0 .82-.636 1.32-1.632 1.32-.356 0-.854-.084-1.148-.182.123-.754.607-2.03 1.878-2.03zM7.238 0C2.87 0 .667 3.13.667 5.741c0 1.58.599 2.987 1.882 3.511.21.086.4.003.46-.23.043-.161.143-.568.188-.738.062-.23.038-.31-.132-.512-.37-.436-.607-1.002-.607-1.802 0-2.323 1.738-4.402 4.525-4.402 2.468 0 3.824 1.508 3.824 3.522 0 2.65-1.173 4.887-2.914 4.887-.961 0-1.68-.796-1.45-1.77.276-1.165.811-2.422.811-3.262 0-.752-.404-1.38-1.24-1.38-.982 0-1.772 1.017-1.772 2.38 0 .867.293 1.453.293 1.453l-1.182 5.008c-.35 1.487-.053 3.309-.027 3.493.014.109.155.135.218.053.09-.119 1.261-1.564 1.66-3.008a289.8 289.8 0 00.646-2.526c.319.609 1.252 1.146 2.245 1.146 2.954 0 4.959-2.694 4.959-6.3C13.055 2.54 10.745 0 7.236 0z"/></svg>