<svg xmlns="http://www.w3.org/2000/svg" viewBox="0 0 45 18" height="18" width="45" role="img" aria-label="#"><path fill="#AEAEAE" d="M3.95 7.053c0-.468.385-.648 1.022-.648.913 0 2.066.276 2.98.769V4.35a7.924 7.924 0 00-2.98-.553c-2.44 0-4.062 1.274-4.062 3.4 0 3.317 4.566 2.788 4.566 4.218 0 .553-.48.733-1.153.733-.998 0-2.271-.408-3.28-.961v2.86a8.329 8.329 0 003.28.685c2.499 0 4.217-1.238 4.217-3.389-.012-3.58-4.59-2.944-4.59-4.29zm8.123-5.66L9.14 2.02l-.012 9.624c0 1.779 1.334 3.089 3.112 3.089.986 0 1.707-.18 2.103-.397v-2.44c-.384.157-2.283.71-2.283-1.069V6.561h2.283V4h-2.283l.012-2.607zm6.008 3.498L17.889 4h-2.596v10.514h3.004V7.39c.71-.925 1.91-.757 2.283-.625V4.001c-.384-.144-1.79-.408-2.499.89zM21.313 4h3.016v10.514h-3.016V4.001zm0-.913l3.016-.649V0l-3.016.637v2.451zm9.289.71c-1.178 0-1.935.552-2.355.936l-.157-.745h-2.643V18l3.004-.637.012-3.4c.432.312 1.07.757 2.127.757 2.15 0 4.11-1.73 4.11-5.54-.013-3.484-1.995-5.383-4.098-5.383zm-.721 8.278c-.71 0-1.13-.252-1.418-.565l-.012-4.458c.312-.348.745-.588 1.43-.588 1.093 0 1.85 1.225 1.85 2.8 0 1.61-.745 2.811-1.85 2.811zM44.168 9.3c0-3.076-1.49-5.503-4.338-5.503-2.86 0-4.59 2.427-4.59 5.48 0 3.616 2.043 5.443 4.974 5.443 1.43 0 2.512-.325 3.329-.781v-2.404c-.817.409-1.754.661-2.944.661-1.165 0-2.199-.408-2.331-1.826h5.876c0-.156.024-.781.024-1.07zM38.232 8.16c0-1.358.83-1.923 1.586-1.923.733 0 1.514.565 1.514 1.923h-3.1z"/></svg>